<svg width="32" height="32" viewBox="0 0 32 32" fill="none" xmlns="http://www.w3.org/2000/svg">
  <!-- Fundo do ícone com gradiente azul -->
  <rect width="32" height="32" rx="8" fill="#2563eb"/>
  
  <!-- Estrutura principal do prédio -->
  <path d="M25 4H7C6.448 4 6 4.448 6 5V27C6 27.552 6.448 28 7 28H25C25.552 28 26 27.552 26 27V5C26 4.448 25.552 4 25 4Z" stroke="white" stroke-width="1.5" fill="none"/>
  
  <!-- Janelas dos apartamentos - andar superior -->
  <rect x="10" y="8" width="3" height="3" fill="white" opacity="0.9" rx="0.5"/>
  <rect x="19" y="8" width="3" height="3" fill="white" opacity="0.9" rx="0.5"/>
  
  <!-- Janelas dos apartamentos - andar do meio -->
  <rect x="10" y="14" width="3" height="3" fill="white" opacity="0.7" rx="0.5"/>
  <rect x="19" y="14" width="3" height="3" fill="white" opacity="0.7" rx="0.5"/>
  
  <!-- Janelas dos apartamentos - andar inferior -->
  <rect x="10" y="20" width="3" height="3" fill="white" opacity="0.5" rx="0.5"/>
  <rect x="19" y="20" width="3" height="3" fill="white" opacity="0.5" rx="0.5"/>
  
  <!-- Porta de entrada -->
  <rect x="15" y="24" width="2" height="3" fill="white" rx="0.3"/>
  
  <!-- Logo/marca no topo -->
  <circle cx="16" cy="6" r="0.8" fill="white" opacity="0.8"/>
  
  <!-- Linhas dos andares para dar profundidade -->
  <line x1="8" y1="12" x2="24" y2="12" stroke="white" stroke-width="0.3" opacity="0.4"/>
  <line x1="8" y1="18" x2="24" y2="18" stroke="white" stroke-width="0.3" opacity="0.4"/>
</svg>
